# xmcd
#
# Track frame offsets: 
#        183
#        19940
#        38540
#        56460
#        73698
#        91815
#        110228
#        127180
#        143365
#        163653
#        180493
#        199450
#        216278
#        233788
#
# Disc length: 3384 seconds
#
# Revision: 0
# Processed by: cddbd v1.5.2PL0 Copyright (c) Steve Scherf et al.
# Submitted via: ExactAudioCopy v1.0b1
#
DISCID=c70d360e
DTITLE=庾澄慶 - 讓我一次愛個夠
DYEAR=1989
DGENRE=Oldies
TTITLE0=讓我一次愛個夠
TTITLE1=愛你的記憶
TTITLE2=等待明天
TTITLE3=整晚的音樂
TTITLE4=飛翔城市
TTITLE5=碼頭之歌
TTITLE6=午夜精靈
TTITLE7=無法忍受
TTITLE8=沒有選擇
TTITLE9=無人島
TTITLE10=我想什麼
TTITLE11=滑翔飛機
TTITLE12=午夜樂隊
TTITLE13=碼頭之歌(演奏曲)
EXTD=
EXTT0=
EXTT1=
EXTT2=
EXTT3=
EXTT4=
EXTT5=
EXTT6=
EXTT7=
EXTT8=
EXTT9=
EXTT10=
EXTT11=
EXTT12=
EXTT13=
PLAYORDER=
